:version 1.10
:name ASF
:units
  mass 1
  length 1
  angle deg
:documentation
  ASF file generated by Kaydara
:root
  axis xyz
  order  tx ty tz rx ry rz
  position 0 0 0
  orientation 0 0 0
:bonedata
  begin
    id 1
    name RightUpLegDummy
    direction -0.718183 -0.695806 0.00816078
    length 4.904
    axis 0 0 0 xyz
  end
  begin
    id 2
    name RightUpLeg
    direction 3.53989e-006 -0.995788 0.0916897
    length 17.4976
    axis -3.49089 -0.000906621 0.000287158 xyz
    dof rx ry rz
  end
  begin
    id 3
    name RightLeg
    direction 0.00371093 -0.995096 -0.0988418
    length 16.5821
    axis 3.68512 0.0193738 -0.131023 xyz
    dof rx ry rz
  end
  begin
    id 4
    name RightFoot
    direction 0.000791514 -0.46099 0.887405
    length 3.77069
    axis 4.84075e-005 -0.120479 -0.188788 xyz
    dof rx ry rz
  end
  begin
    id 5
    name RightToes
    direction 0.00124746 -0.014064 0.9999
    length 3.85082
    axis 0.00048216 0.542163 -0.142577 xyz
    dof rx ry rz
  end
  begin
    id 6
    name SpineDummy
    direction 8.36599e-015 1 5.97571e-016
    length 4.6813
    axis 0 0 0 xyz
  end
  begin
    id 7
    name Spine
    direction -4.63632e-008 0.999988 0.00495137
    length 10.1015
    axis -0.00138897 0.000121419 3.25764e-006 xyz
    dof rx ry rz
  end
  begin
    id 8
    name Spine1
    direction 0 0 0
    length 0
    axis -0.00138896 0.000121452 2.39764e-006 xyz
    dof rx ry rz
  end
  begin
    id 9
    name HEadDummy
    direction -3.91456e-008 0.999999 0.00127422
    length 3.43865
    axis -0.00138896 0.000121452 2.39764e-006 xyz
  end
  begin
    id 10
    name HEad
    direction -0.0222688 0.980941 0.193023
    length 5.12695
    axis -0.00138895 0.000121452 2.39764e-006 xyz
    dof rx ry rz
  end
  begin
    id 11
    name LeftShoulder1Dummy
    direction 0.998891 -0.0402508 -0.0244456
    length 3.5433
    axis -0.00138896 0.000121452 2.39764e-006 xyz
  end
  begin
    id 12
    name LeftShoulder1
    direction 0.99951 -0.000327743 0.0313091
    length 4.05031
    axis -0.00138896 0.000121452 2.39764e-006 xyz
    dof rx ry rz
  end
  begin
    id 13
    name LeftArm
    direction 0.998561 -0.00100054 -0.0536182
    length 10.3537
    axis -23.1894 0.134784 0.96751 xyz
    dof rx ry rz
  end
  begin
    id 14
    name LeftForeArm
    direction 0.998903 0.00866434 0.046012
    length 8.70632
    axis -9.91835 -0.06569 -0.177792 xyz
    dof rx ry rz
  end
  begin
    id 15
    name LeftHand
    direction 0.992938 -0.0411636 0.11126
    length 5.32135
    axis -0.00960227 -0.00340091 0.185174 xyz
    dof rx ry rz
  end
  begin
    id 16
    name RightShoulderDummy
    direction -0.998891 -0.0402509 -0.0244414
    length 3.5433
    axis -0.00138896 0.000121452 2.39764e-006 xyz
  end
  begin
    id 17
    name RightShoulder
    direction -0.99951 -0.000327827 0.0313133
    length 4.05031
    axis 0.215806 0.000203644 -0.00680151 xyz
    dof rx ry rz
  end
  begin
    id 18
    name RightArm
    direction -0.998573 -0.000999583 -0.053403
    length 10.3947
    axis -23.2009 -0.134239 -0.9641 xyz
    dof rx ry rz
  end
  begin
    id 19
    name RightForeArm
    direction -0.998898 0.00868026 0.0461306
    length 8.68355
    axis -9.92322 0.0658061 0.178869 xyz
    dof rx ry rz
  end
  begin
    id 20
    name RightHand
    direction -0.992843 -0.0414603 0.112003
    length 5.28593
    axis -0.00960634 0.00330671 -0.185226 xyz
    dof rx ry rz
  end
  begin
    id 21
    name LeftUpLegDummy
    direction 0.718183 -0.695806 0.00816078
    length 4.904
    axis 0 0 0 xyz
  end
  begin
    id 22
    name LeftUpLeg
    direction -6.8115e-006 -0.995793 0.0916336
    length 17.4976
    axis -3.48766 0.00143441 -0.000523914 xyz
    dof rx ry rz
  end
  begin
    id 23
    name LeftLeg
    direction -0.00601357 -0.995091 -0.0987824
    length 16.5821
    axis 3.68177 -0.00654038 -0.00028478 xyz
    dof rx ry rz
  end
  begin
    id 24
    name LeftFoot
    direction -0.00417578 -0.460984 0.887399
    length 3.77069
    axis 1.87232e-006 4.66002e-005 -8.1837e-006 xyz
    dof rx ry rz
  end
  begin
    id 25
    name LeftToes
    direction 0.00818058 -0.00485161 0.999955
    length 3.85048
    axis 1.06246e-005 4.65855e-005 -8.18502e-006 xyz
    dof rx ry rz
  end
:hierarchy
  begin
    root RightUpLegDummy SpineDummy LeftUpLegDummy
    RightUpLegDummy RightUpLeg
    RightUpLeg RightLeg
    RightLeg RightFoot
    RightFoot RightToes
    SpineDummy Spine
    Spine Spine1
    Spine1 HEadDummy LeftShoulder1Dummy RightShoulderDummy
    HEadDummy HEad
    LeftShoulder1Dummy LeftShoulder1
    LeftShoulder1 LeftArm
    LeftArm LeftForeArm
    LeftForeArm LeftHand
    RightShoulderDummy RightShoulder
    RightShoulder RightArm
    RightArm RightForeArm
    RightForeArm RightHand
    LeftUpLegDummy LeftUpLeg
    LeftUpLeg LeftLeg
    LeftLeg LeftFoot
    LeftFoot LeftToes
  end

:SAMPLES-PER-SECOND 30
:FULLY-SPECIFIED
:DEGREES
1
root  -2.91238 40.3565 8.77413 -177.574 -56.8777 177.292
RightUpLeg  1.02799 -8.04313 -9.59471
RightLeg  3.68469 -17.0408 -3.2997
RightFoot  2.01562 -1.409 12.0683
RightToes  6.35927e-011 1.30204e-014 -6.03759e-014
Spine  0.414491 0.420825 -0.932924
Spine1  8.61894 -0.00707944 1.51917
HEad  -6.30216 11.8158 -4.8686
LeftShoulder1  1.62188 -4.49886 -13.3515
LeftArm  56.643 21.9194 -35.7225
LeftForeArm  116.575 -81.4115 -71.6257
LeftHand  -2.02336 0.34616 44.7166
RightShoulder  1.19945 2.07838 14.699
RightArm  46.0876 -29.8214 30.7474
RightForeArm  125.814 81.5798 87.8753
RightHand  -2.22442 6.23925 -22.2432
LeftUpLeg  -4.60558 7.75491 3.10059
LeftLeg  2.05052 13.4361 0.177061
LeftFoot  4.43867 0.845935 -6.29552
LeftToes  7.40077e-010 7.2695e-011 -6.03601e-011
2
root  -2.93946 40.3454 8.8564 -177.539 -56.8399 177.189
RightUpLeg  0.972249 -8.20951 -9.8613
RightLeg  3.80439 -16.7082 -3.23147
RightFoot  1.99611 -1.41533 12.1679
RightToes  6.35927e-011 1.30204e-014 -6.03759e-014
Spine  0.494631 0.404169 -0.883226
Spine1  8.71814 0.0360973 1.25
HEad  -6.35203 11.7696 -4.7848
LeftShoulder1  1.62201 -4.50073 -13.2618
LeftArm  56.6904 21.8856 -35.6523
LeftForeArm  117.402 -81.4519 -72.5505
LeftHand  -2.00444 0.359098 44.4425
RightShoulder  1.20839 2.09509 14.8044
RightArm  46.1092 -29.8791 30.5923
RightForeArm  126.922 81.5801 89.0168
RightHand  -2.20596 6.37431 -21.8226
LeftUpLeg  -4.70765 7.69737 2.91993
LeftLeg  2.34247 13.5194 0.217487
LeftFoot  4.20254 0.823452 -6.21711
LeftToes  7.40077e-010 7.2695e-011 -6.03601e-011
3
root  -2.96224 40.3155 9.03263 -177.277 -56.5999 176.87
RightUpLeg  0.510817 -8.42978 -10.3692
RightLeg  4.34409 -16.212 -3.29112
RightFoot  1.94417 -1.42479 12.3035
RightToes  6.35927e-011 1.30204e-014 -6.03759e-014
Spine  0.784869 0.442164 -0.978929
Spine1  8.73058 0.142328 0.94796
HEad  -6.53044 11.6158 -4.76333
LeftShoulder1  1.62683 -4.52455 -13.2709
LeftArm  56.6675 21.8092 -35.5308
LeftForeArm  118.437 -81.4974 -73.4593
LeftHand  -1.99912 0.36147 44.3547
RightShoulder  1.20388 2.07351 14.8074
RightArm  46.133 -29.8898 30.5384
RightForeArm  127.472 81.5819 89.5558
RightHand  -2.17866 6.37589 -21.5604
LeftUpLeg  -5.10001 7.50121 2.47913
LeftLeg  3.01529 13.9705 0.362136
LeftFoot  3.79498 0.789107 -6.11
LeftToes  7.40077e-010 7.2695e-011 -6.03601e-011
4
root  -2.95555 40.2759 9.25955 -176.699 -55.9649 176.407
RightUpLeg  -0.527411 -8.49303 -10.9132
RightLeg  5.22571 -15.5268 -3.52627
RightFoot  1.90942 -1.44421 12.5009
RightToes  6.35927e-011 1.30204e-014 -6.03759e-014
Spine  1.30716 0.576813 -1.11159
Spine1  8.32281 0.37997 0.554969
HEad  -6.72958 11.5199 -4.72606
LeftShoulder1  1.63948 -4.57531 -13.3036
LeftArm  56.4633 21.8752 -35.5533
LeftForeArm  118.725 -81.5063 -73.2058
LeftHand  -2.00458 0.364676 44.4903
RightShoulder  1.19415 2.0386 14.7643
RightArm  46.3002 -29.7887 30.5376
RightForeArm  127.745 81.6011 89.3329
RightHand  -2.16883 6.25014 -21.6885
LeftUpLeg  -5.80232 7.15677 1.8726
LeftLeg  3.80571 14.9765 0.615679
LeftFoot  3.36242 0.764155 -6.07839
LeftToes  7.40077e-010 7.2695e-011 -6.03601e-011
5
root  -2.93365 40.2322 9.50849 -176.191 -54.9366 176.071
RightUpLeg  -1.78211 -8.40313 -11.4025
RightLeg  6.08984 -14.3673 -3.67934
RightFoot  1.89814 -1.49098 12.9094
RightToes  6.35927e-011 1.30204e-014 -6.03759e-014
Spine  2.13636 0.716547 -0.979406
Spine1  7.53009 0.725707 -0.263516
HEad  -6.97429 11.7903 -4.52666
LeftShoulder1  1.62642 -4.57442 -13.1274
LeftArm  56.056 22.2139 -35.8291
LeftForeArm  118.593 -81.492 -72.1372
LeftHand  -1.95188 0.516494 44.6631
RightShoulder  1.2096 2.0822 14.8827
RightArm  46.629 -29.5871 30.3301
RightForeArm  130.062 81.6331 90.8459
RightHand  -2.14551 6.16137 -21.6222
LeftUpLeg  -6.56355 6.8736 1.3369
LeftLeg  4.64288 16.2836 0.918227
LeftFoot  2.90676 0.744494 -6.09521
LeftToes  7.40077e-010 7.2695e-011 -6.03601e-011
6
root  -2.90576 40.1831 9.76928 -176.235 -53.6451 176.13
RightUpLeg  -2.76847 -8.37183 -11.7924
RightLeg  6.63035 -12.944 -3.50493
RightFoot  1.99664 -1.55511 13.3615
RightToes  6.35927e-011 1.30204e-014 -6.03759e-014
Spine  3.35332 0.799999 -0.701702
Spine1  6.71156 1.02555 -1.21489
HEad  -7.56616 12.4914 -4.39639
LeftShoulder1  1.57902 -4.44031 -12.844
LeftArm  55.4426 22.6684 -36.283
LeftForeArm  118.198 -81.4533 -70.3357
LeftHand  -1.84597 0.807652 44.9195
RightShoulder  1.24499 2.18898 15.1194
RightArm  46.9489 -29.2482 29.6752
RightForeArm  137.749 81.5926 97.6797
RightHand  -2.04199 6.13462 -20.6596
LeftUpLeg  -7.14861 6.92157 1.11247
LeftLeg  5.65222 17.5137 1.21523
LeftFoot  2.42955 0.716342 -6.05141
LeftToes  7.40077e-010 7.2695e-011 -6.03601e-011
7
root  -2.8625 40.137 10.038 -176.758 -52.0767 176.634
RightUpLeg  -3.50299 -8.62931 -12.0224
RightLeg  6.75693 -11.3781 -2.94266
RightFoot  2.25386 -1.62932 13.7325
RightToes  6.35927e-011 1.30204e-014 -6.03759e-014
Spine  4.78209 0.937247 -0.752984
Spine1  6.04635 1.20682 -1.50233
HEad  -8.69538 13.4121 -4.71151
LeftShoulder1  1.52914 -4.2187 -12.7608
LeftArm  54.5653 23.0715 -36.8357
LeftForeArm  116.749 -81.3247 -66.8822
LeftHand  -1.77266 1.0372 45.3806
RightShoulder  1.26264 2.24154 15.2369
RightArm  47.2369 -28.7698 28.3006
RightForeArm  154.017 81.0649 112.323
RightHand  -1.80512 6.18968 -18.2535
LeftUpLeg  -7.61161 7.29401 1.24186
LeftLeg  6.69597 18.7148 1.50733
LeftFoot  2.01963 0.686734 -5.96555
LeftToes  7.40077e-010 7.2695e-011 -6.03601e-011
8
root  -2.80464 40.1049 10.3047 -177.205 -50.0294 177.333
RightUpLeg  -4.48403 -9.3009 -12.1785
RightLeg  6.7586 -8.80832 -1.98089
RightFoot  2.11251 -1.74711 14.8619
RightToes  6.35927e-011 1.30204e-014 -6.03759e-014
Spine  6.05509 1.25774 -1.29278
Spine1  5.37617 1.39155 -1.01169
HEad  -10.1297 14.4801 -5.38155
LeftShoulder1  1.50007 -4.04346 -12.8417
LeftArm  53.3072 23.6211 -37.5256
LeftForeArm  114.079 -81.0449 -61.8539
LeftHand  -1.74275 1.17524 46.0227
RightShoulder  1.24646 2.20598 15.0756
RightArm  47.6162 -28.2992 26.2117
RightForeArm  175.546 79.2718 130.845
RightHand  -1.41856 6.54923 -14.0562
LeftUpLeg  -8.11446 7.71934 1.52486
LeftLeg  7.41182 20.3219 1.84198
LeftFoot  1.78538 0.676661 -5.97309
LeftToes  7.40077e-010 7.2695e-011 -6.03601e-011
9
root  -2.74474 40.0702 10.5499 -177.301 -47.4782 177.855
RightUpLeg  -6.07924 -10.5075 -12.4364
RightLeg  7.49564 -4.99983 -0.854791
RightFoot  0.559937 -1.83882 17.6242
RightToes  6.35927e-011 1.30204e-014 -6.03759e-014
Spine  7.01259 1.65559 -2.01924
Spine1  4.63766 1.67546 -0.593221
HEad  -11.4776 15.861 -5.88757
LeftShoulder1  1.47368 -3.95799 -12.7023
LeftArm  51.6112 24.5998 -38.3609
LeftForeArm  110.868 -80.624 -56.517
LeftHand  -1.72056 1.26818 46.4218
RightShoulder  1.21334 2.16364 14.6123
RightArm  47.8366 -27.9428 24.1011
RightForeArm  -167.326 76.1937 145.051
RightHand  -0.846132 7.28684 -8.09442
LeftUpLeg  -8.61711 8.0338 1.7216
LeftLeg  7.85246 22.496 2.29343
LeftFoot  1.73996 0.686536 -6.07735
LeftToes  7.40077e-010 7.2695e-011 -6.03601e-011
10
root  -2.68141 40.0131 10.7478 -177.337 -44.8966 178.042
RightUpLeg  -8.10325 -12.2978 -12.6864
RightLeg  10.0003 -2.72064 -0.447287
RightFoot  -2.42481 -1.61895 20.2978
RightToes  6.35927e-011 1.30204e-014 -6.03759e-014
Spine  7.76731 1.84407 -2.64924
Spine1  4.09472 1.88006 -0.820156
HEad  -12.4944 17.5339 -5.91712
LeftShoulder1  1.42211 -3.87004 -12.1888
LeftArm  49.6448 25.7731 -39.1569
LeftForeArm  106.501 -79.9589 -50.5945
LeftHand  -1.79105 1.0238 45.6933
RightShoulder  1.17889 2.1586 13.9614
RightArm  47.0326 -27.5389 22.8456
RightForeArm  -159.292 72.9368 152.901
RightHand  -0.0496639 7.6771 -0.758829
LeftUpLeg  -8.86658 8.31175 1.79285
LeftLeg  8.3511 24.7257 2.83107
LeftFoot  1.80118 0.695666 -6.13129
LeftToes  7.40077e-010 7.2695e-011 -6.03601e-011
11
root  -2.607 39.9616 10.8793 -177.567 -43.0154 177.991
RightUpLeg  -9.98917 -13.7981 -12.8032
RightLeg  14.5772 -6.28767 -2.10512
RightFoot  -4.83 -1.13469 19.0714
RightToes  6.35927e-011 1.30204e-014 -6.03759e-014
Spine  8.30428 1.63673 -3.17895
Spine1  3.98672 1.68828 -1.21728
HEad  -12.9694 19.1477 -5.60242
LeftShoulder1  1.35244 -3.7216 -11.5602
LeftArm  47.7373 26.4608 -39.6903
LeftForeArm  99.1768 -78.5628 -42.3357
LeftHand  -2.00444 0.254615 43.6295
RightShoulder  1.14987 2.14458 13.4498
RightArm  44.221 -26.8971 22.5199
RightForeArm  -158.937 70.4322 156.557
RightHand  0.740913 6.59078 6.87858
LeftUpLeg  -8.67847 8.5792 1.82718
LeftLeg  8.70675 26.292 3.18713
LeftFoot  1.89294 0.697883 -6.11223
LeftToes  7.40077e-010 7.2695e-011 -6.03601e-011
12
root  -2.52011 39.9371 10.9309 -177.762 -42.1916 177.773
RightUpLeg  -11.293 -14.0847 -13.0631
RightLeg  20.4234 -15.0186 -6.3168
RightFoot  -4.10748 -0.812065 12.7406
RightToes  6.35927e-011 1.30204e-014 -6.03759e-014
Spine  8.38564 1.09181 -3.75605
Spine1  4.17461 1.04519 -1.21835
HEad  -12.6728 20.4261 -5.18486
LeftShoulder1  1.30224 -3.62144 -11.0715
LeftArm  45.9938 26.2556 -40.0608
LeftForeArm  88.5844 -75.6179 -32.1172
LeftHand  -2.13743 -0.370716 41.606
RightShoulder  1.13288 2.07191 13.4077
RightArm  39.0323 -26.3368 22.5127
RightForeArm  -162.488 68.853 158.051
RightHand  1.06876 3.98038 12.8806
LeftUpLeg  -8.33596 8.72204 1.81957
LeftLeg  8.73892 26.9323 3.24053
LeftFoot  1.94299 0.712751 -6.21943
LeftToes  7.40077e-010 7.2695e-011 -6.03601e-011
13
root  -2.44009 39.8979 10.9064 -177.803 -42.2112 177.005
RightUpLeg  -11.3026 -14.6638 -13.9275
RightLeg  25.4612 -20.4741 -10.4215
RightFoot  -0.905987 -0.49239 5.28487
RightToes  6.35927e-011 1.30204e-014 -6.03759e-014
Spine  8.47215 0.431104 -4.56345
Spine1  4.20461 0.21322 -1.0897
HEad  -11.639 21.3851 -4.78748
LeftShoulder1  1.29878 -3.71016 -10.7688
LeftArm  43.9729 25.357 -40.7351
LeftForeArm  76.1273 -70.4195 -22.7285
LeftHand  -2.05253 -0.328419 40.3388
RightShoulder  1.12107 1.92699 13.769
RightArm  31.7889 -26.6228 22.6162
RightForeArm  -167.564 67.9759 158.464
RightHand  0.837892 0.735277 15.6261
LeftUpLeg  -7.80962 8.48313 1.39403
LeftLeg  8.80331 27.1066 3.35877
LeftFoot  1.99773 0.749664 -6.5106
LeftToes  7.40077e-010 7.2695e-011 -6.03601e-011
14
root  -2.39933 39.8403 10.8473 -178.091 -42.5474 175.367
RightUpLeg  -9.03115 -15.3937 -15.878
RightLeg  26.8945 -19.5211 -10.634
RightFoot  1.00094 -0.208305 1.90644
RightToes  6.35927e-011 1.30204e-014 -6.03759e-014
Spine  9.55892 -0.101315 -5.47517
Spine1  3.757 -0.508053 -1.22749
HEad  -10.2554 22.11 -4.48615
LeftShoulder1  1.33332 -3.92913 -10.6949
LeftArm  40.749 24.1934 -42.0806
LeftForeArm  63.2602 -63.0025 -15.8595
LeftHand  -2.04465 -0.870639 37.1248
RightShoulder  1.09957 1.72939 14.178
RightArm  23.0634 -28.0545 23.2877
RightForeArm  -173.892 67.4479 158.335
RightHand  0.348202 -2.49636 14.5157
LeftUpLeg  -6.21745 7.66962 0.251584
LeftLeg  8.60856 27.5889 3.65309
LeftFoot  2.29648 0.783336 -6.66392
LeftToes  7.40077e-010 7.2695e-011 -6.03601e-011
